<mxfile host="app.diagrams.net" modified="2021-06-05T23:25:57.564Z" agent="5.0 (Windows NT 10.0; Win64; x64) AppleWebKit/537.36 (KHTML, like Gecko) Chrome/91.0.4472.77 Safari/537.36" etag="MvRXVkw_Kcw4yUFL4Fta" version="14.6.13" type="github">
  <diagram id="y4xUK340Yi0n0HpJQpdB" name="高数">
    <mxGraphModel dx="1360" dy="802" grid="1" gridSize="10" guides="1" tooltips="1" connect="1" arrows="1" fold="1" page="1" pageScale="1" pageWidth="827" pageHeight="1169" math="0" shadow="0">
      <root>
        <mxCell id="0" />
        <mxCell id="1" parent="0" />
        <mxCell id="9GP8GhjboVFgP3yC03fb-4" value="高数" style="rounded=1;whiteSpace=wrap;html=1;labelBackgroundColor=none;strokeColor=#B20000;fillColor=#e51400;fontSize=16;align=center;fontColor=#ffffff;" vertex="1" parent="1">
          <mxGeometry x="40" y="144" width="130" height="30" as="geometry" />
        </mxCell>
        <mxCell id="9GP8GhjboVFgP3yC03fb-5" value="&lt;span style=&quot;font-size: 11px&quot;&gt;API_InterVectorIsr()&lt;/span&gt;" style="rounded=1;whiteSpace=wrap;html=1;labelBackgroundColor=none;strokeColor=#666666;fillColor=#f5f5f5;fontSize=11;fontColor=#333333;align=center;" vertex="1" parent="1">
          <mxGeometry x="375" y="272" width="170" height="30" as="geometry" />
        </mxCell>
        <mxCell id="9GP8GhjboVFgP3yC03fb-6" value="&lt;span style=&quot;font-size: 11px&quot;&gt;bspIntHandle()&lt;/span&gt;" style="rounded=1;whiteSpace=wrap;html=1;labelBackgroundColor=none;strokeColor=#666666;fillColor=#f5f5f5;fontSize=11;fontColor=#333333;align=center;" vertex="1" parent="1">
          <mxGeometry x="180" y="210" width="170" height="30" as="geometry" />
        </mxCell>
        <mxCell id="9GP8GhjboVFgP3yC03fb-7" value="&lt;span style=&quot;font-size: 11px&quot;&gt;INTER_VECTOR_SVC()&lt;/span&gt;" style="rounded=1;whiteSpace=wrap;html=1;labelBackgroundColor=none;strokeColor=#666666;fillColor=#f5f5f5;fontSize=11;fontColor=#333333;align=center;dashed=1;" vertex="1" parent="1">
          <mxGeometry x="570" y="340" width="170" height="30" as="geometry" />
        </mxCell>
        <mxCell id="9GP8GhjboVFgP3yC03fb-8" value="" style="edgeStyle=elbowEdgeStyle;elbow=vertical;endArrow=classic;html=1;gradientColor=#ffffff;fontSize=15;exitX=1;exitY=0.5;exitDx=0;exitDy=0;entryX=0.588;entryY=-0.067;entryDx=0;entryDy=0;entryPerimeter=0;curved=1;" edge="1" parent="1" source="9GP8GhjboVFgP3yC03fb-4" target="9GP8GhjboVFgP3yC03fb-6">
          <mxGeometry width="50" height="50" relative="1" as="geometry">
            <mxPoint x="270" y="200" as="sourcePoint" />
            <mxPoint x="320" y="150" as="targetPoint" />
            <Array as="points">
              <mxPoint x="240" y="160" />
            </Array>
          </mxGeometry>
        </mxCell>
        <mxCell id="9GP8GhjboVFgP3yC03fb-9" value="" style="edgeStyle=elbowEdgeStyle;elbow=vertical;endArrow=classic;html=1;gradientColor=#ffffff;fontSize=15;exitX=1;exitY=0.5;exitDx=0;exitDy=0;entryX=0.588;entryY=-0.067;entryDx=0;entryDy=0;entryPerimeter=0;curved=1;" edge="1" parent="1">
          <mxGeometry width="50" height="50" relative="1" as="geometry">
            <mxPoint x="350" y="225" as="sourcePoint" />
            <mxPoint x="459.96000000000004" y="272.99" as="targetPoint" />
            <Array as="points">
              <mxPoint x="420" y="225" />
            </Array>
          </mxGeometry>
        </mxCell>
        <mxCell id="9GP8GhjboVFgP3yC03fb-10" value="" style="edgeStyle=elbowEdgeStyle;elbow=vertical;endArrow=classic;html=1;gradientColor=#ffffff;fontSize=15;exitX=1;exitY=0.5;exitDx=0;exitDy=0;entryX=0.588;entryY=-0.067;entryDx=0;entryDy=0;entryPerimeter=0;curved=1;" edge="1" parent="1">
          <mxGeometry width="50" height="50" relative="1" as="geometry">
            <mxPoint x="545" y="290" as="sourcePoint" />
            <mxPoint x="654.96" y="337.99" as="targetPoint" />
            <Array as="points">
              <mxPoint x="615" y="290" />
            </Array>
          </mxGeometry>
        </mxCell>
      </root>
    </mxGraphModel>
  </diagram>
</mxfile>
